# xmcd
#
# Track frame offsets:
#	150
#	18167
#	33895
#	50663
#	66965
#	76974
#	94633
#	111894
#	127995
#	145434
#	160524
#	175375
#	191240
#	207627
#	222527
#	241502
#
# Disc length: 3380 seconds
#
# Revision: 2
# Processed by: cddbd v1.5.2PL0 Copyright (c) Steve Scherf et al.
# Submitted via: EZCDAudioConverter 2.1.5.1
#
DISCID=e00d3210
DTITLE=Various Artist - My Country Vol 1 - CD 2
DYEAR=2010
DGENRE=US Country 90s, 00s
TTITLE0=Alan Jackson - Where I Came From
TTITLE1=Brad Paisley - Mud On The Tires
TTITLE2=Gloriana - Wild At Heart
TTITLE3=Heidi Newfield - Johnny and June
TTITLE4=Geroge Strait - Honk If You Honky Tonk
TTITLE5=Bomshel - 19 and Crazy
TTITLE6=Blake Shelton - Home
TTITLE7=Brooks and Dunn - Cowgirls Don't Cry
TTITLE8=Billy Currington - People Are Crazy
TTITLE9=Randy Travis - Three Wooden Crosses
TTITLE10=Gretchen Wilson - Here For The Party
TTITLE11=Wreckers - Leave The Pieces
TTITLE12=Leann Rimes - Probably Wouldn't Be This Way
TTITLE13=Jo Dee Messina - My Give A Damn's Busted
TTITLE14=Travis Tritt - Tougher Than The Rest
TTITLE15=Clay Walker, Freddy Fender - Before The Next Teardrop Falls
EXTD=
EXTT0=
EXTT1=
EXTT2=
EXTT3=
EXTT4=
EXTT5=
EXTT6=
EXTT7=
EXTT8=
EXTT9=
EXTT10=
EXTT11=
EXTT12=
EXTT13=
EXTT14=
EXTT15=
PLAYORDER=
